<svg width="56" height="56" viewBox="0 0 56 56" fill="none" xmlns="http://www.w3.org/2000/svg">
<g id="archive-24">
<g id="Union">
<path fill-rule="evenodd" clip-rule="evenodd" d="M6.41659 4.66667C4.16142 4.66667 2.33325 6.49484 2.33325 8.75V16.9167C2.33325 19.1718 4.16142 21 6.41658 21H49.5833C51.8384 21 53.6666 19.1718 53.6666 16.9167V8.75C53.6666 6.49484 51.8384 4.66667 49.5833 4.66667H6.41659ZM49.5833 8.16667H6.41659C6.09442 8.16667 5.83325 8.42784 5.83325 8.75V16.9167C5.83325 17.2388 6.09442 17.5 6.41658 17.5H49.5833C49.9054 17.5 50.1666 17.2388 50.1666 16.9167V8.75C50.1666 8.42784 49.9054 8.16667 49.5833 8.16667Z" fill="#BDBDBD"/>
<path d="M6.41659 23.3333C7.38308 23.3333 8.16659 24.1168 8.16659 25.0833V47.25C8.16659 47.5722 8.42775 47.8333 8.74992 47.8333H47.2499C47.5721 47.8333 47.8333 47.5722 47.8333 47.25V25.0833C47.8333 24.1168 48.6168 23.3333 49.5833 23.3333C50.5498 23.3333 51.3333 24.1168 51.3333 25.0833V47.25C51.3333 49.5052 49.5051 51.3333 47.2499 51.3333H8.74992C6.49476 51.3333 4.66659 49.5052 4.66659 47.25V25.0833C4.66659 24.1168 5.45009 23.3333 6.41659 23.3333Z" fill="#BDBDBD"/>
<path d="M22.7499 26.8333C21.7834 26.8333 20.9999 27.6168 20.9999 28.5833C20.9999 29.5498 21.7834 30.3333 22.7499 30.3333H33.2499C34.2164 30.3333 34.9999 29.5498 34.9999 28.5833C34.9999 27.6168 34.2164 26.8333 33.2499 26.8333H22.7499Z" fill="#BDBDBD"/>
</g>
</g>
</svg>
