<svg width="56" height="56" viewBox="0 0 56 56" fill="none" xmlns="http://www.w3.org/2000/svg">
<g id="file-media-24">
<path id="Union" fill-rule="evenodd" clip-rule="evenodd" d="M5.25008 9.33333C4.92792 9.33333 4.66675 9.5945 4.66675 9.91666V46.0833C4.66675 46.4055 4.92792 46.6667 5.25008 46.6667H12.6655L32.6659 25.6136C34.2473 23.9489 36.89 23.9151 38.5136 25.5387L51.3334 38.3585V9.91666C51.3334 9.5945 51.0722 9.33333 50.7501 9.33333H5.25008ZM13.4075 50.1667H13.4254H50.7501C53.0052 50.1667 54.8334 48.3385 54.8334 46.0833V42.5878V42.5789V9.91666C54.8334 7.6615 53.0052 5.83333 50.7501 5.83333H5.25008C2.99492 5.83333 1.16675 7.6615 1.16675 9.91666V46.0833C1.16675 48.3385 2.99492 50.1667 5.25008 50.1667H13.4075ZM51.3334 46.0833V43.3082L36.0387 28.0136C35.8068 27.7816 35.4293 27.7864 35.2034 28.0243L17.4931 46.6667H50.7501C51.0722 46.6667 51.3334 46.4055 51.3334 46.0833ZM21.0001 21.5833C21.0001 23.8385 19.1719 25.6667 16.9167 25.6667C14.6616 25.6667 12.8334 23.8385 12.8334 21.5833C12.8334 19.3282 14.6616 17.5 16.9167 17.5C19.1719 17.5 21.0001 19.3282 21.0001 21.5833ZM24.5001 21.5833C24.5001 25.7715 21.1049 29.1667 16.9167 29.1667C12.7286 29.1667 9.33341 25.7715 9.33341 21.5833C9.33341 17.3952 12.7286 14 16.9167 14C21.1049 14 24.5001 17.3952 24.5001 21.5833Z" fill="#BDBDBD"/>
</g>
</svg>
