<svg width="56" height="56" viewBox="0 0 56 56" fill="none" xmlns="http://www.w3.org/2000/svg">
<g id="shield-check-24">
<g id="Union">
<path d="M38.5707 22.8208C39.2541 22.1374 39.2541 21.0293 38.5707 20.3459C37.8873 19.6625 36.7793 19.6625 36.0959 20.3459L25.6666 30.7751L21.0707 26.1792C20.3873 25.4958 19.2793 25.4958 18.5959 26.1792C17.9124 26.8626 17.9124 27.9707 18.5959 28.6541L24.4292 34.4874C25.1126 35.1709 26.2206 35.1709 26.9041 34.4874L38.5707 22.8208Z" fill="#E0E0E0"/>
<path fill-rule="evenodd" clip-rule="evenodd" d="M29.2597 1.48547C28.4409 1.21991 27.5591 1.21991 26.7402 1.48547L7.49023 7.72872C5.80873 8.27407 4.66663 9.83861 4.66663 11.6105V23.3333C4.66664 37.7751 13.4651 48.3114 26.6023 53.2684C27.5021 53.608 28.4978 53.608 29.3976 53.2684C42.5348 48.3114 51.3333 37.7751 51.3333 23.3333V11.6112C51.3333 9.83985 50.1917 8.27425 48.5097 7.72872L29.2597 1.48547ZM27.82 4.81475C27.937 4.77682 28.0629 4.77682 28.1799 4.81475L47.4299 11.058C47.6718 11.1365 47.8333 11.3598 47.8333 11.6112V23.3333C47.8333 36.0765 40.1782 45.4597 28.162 49.9938C28.0585 50.0328 27.9414 50.0328 27.8379 49.9938C15.8217 45.4597 8.16664 36.0765 8.16663 23.3333L8.16663 11.6105C8.16663 11.3598 8.32752 11.1366 8.57 11.058L27.82 4.81475Z" fill="#E0E0E0"/>
</g>
</g>
</svg>
